[h264 @ 0x55e56bb02080] Reinit context to 848x480, pix_fmt: yuv420p
Input #0, mov,mp4,m4a,3gp,3g2,mj2, from '/var/www/html/project/media/video/original/WhatsApp_Video_2022-07-07_at_20.57.56.mp4':
  Metadata:
    major_brand     : mp42
    minor_version   : 0
    compatible_brands: mp42isom
  Duration: 00:00:10.03, start: 0.000000, bitrate: 1715 kb/s
    Stream #0:0(und): Video: h264 (Baseline), 1 reference frame (avc1 / 0x31637661), yuv420p(tv, bt709, left), 848x480, 1656 kb/s, 29.97 fps, 29.97 tbr, 600 tbn, 1200 tbc (default)
    Stream #0:1(und): Audio: aac (LC) (mp4a / 0x6134706D), 44100 Hz, stereo, fltp, 64 kb/s (default)
Input #1, png_pipe, from '/var/www/html/project/static/images/templates/logo.png':
  Duration: N/A, bitrate: N/A
    Stream #1:0: Video: png, 1 reference frame, rgba(pc), 1920x1080 [SAR 2835:2835 DAR 16:9], 25 tbr, 25 tbn, 25 tbc
[h264 @ 0x55e56bb60980] Reinit context to 1280x720, pix_fmt: yuv420p
Input #2, mov,mp4,m4a,3gp,3g2,mj2, from '/var/www/html/project/static/images/templates/Codino.mp4':
  Metadata:
    major_brand     : mp42
    minor_version   : 1
    compatible_brands: isommp41mp42
    creation_time   : 2021-07-11T07:02:58.000000Z
  Duration: 00:00:02.00, start: 0.000000, bitrate: 1007 kb/s
    Stream #2:0(ita): Audio: aac (LC) (mp4a / 0x6134706D), 44100 Hz, stereo, fltp, 102 kb/s (default)
    Metadata:
      creation_time   : 2021-07-11T07:02:58.000000Z
      handler_name    : Core Media Audio
    Stream #2:1(und): Video: h264 (High), 1 reference frame (avc1 / 0x31637661), yuv420p(tv, bt709, progressive, left), 1280x720 [SAR 1:1 DAR 16:9], 813 kb/s, 25 fps, 25 tbr, 25k tbn, 50k tbc (default)
    Metadata:
      creation_time   : 2021-07-11T07:02:58.000000Z
      handler_name    : Core Media Video
[Parsed_scale_0 @ 0x55e56bc200c0] w:1280 h:720 flags:'bilinear' interl:0
[Parsed_scale_2 @ 0x55e56bc2ca80] w:1280 h:720 flags:'bilinear' interl:0
[Parsed_scale_4 @ 0x55e56bc71300] w:1280 h:720 flags:'bilinear' interl:0
Stream mapping:
  Stream #0:0 (h264) -> scale
  Stream #0:1 (aac) -> concat:in0:a0
  Stream #1:0 (png) -> scale
  Stream #2:0 (aac) -> concat:in1:a0
  Stream #2:1 (h264) -> scale
  concat:out:v0 -> Stream #0:0 (libx264)
  concat:out:a0 -> Stream #0:1 (aac)
Press [q] to stop, [?] for help
[h264 @ 0x55e56bb3a240] Reinit context to 848x480, pix_fmt: yuv420p
[h264 @ 0x55e56bfb3740] Reinit context to 1280x720, pix_fmt: yuv420p
[Parsed_scale_0 @ 0x55e56cadad40] w:1280 h:720 flags:'bilinear' interl:0
[Parsed_scale_2 @ 0x55e56cae3640] w:1280 h:720 flags:'bilinear' interl:0
[Parsed_scale_4 @ 0x55e56cae4700] w:1280 h:720 flags:'bilinear' interl:0
[graph 0 input from stream 0:0 @ 0x55e56cae8e40] w:848 h:480 pixfmt:yuv420p tb:1/600 fr:30000/1001 sar:0/1 sws_param:flags=2
[graph 0 input from stream 1:0 @ 0x55e56cae9f00] w:1920 h:1080 pixfmt:rgba tb:1/25 fr:25/1 sar:2835/2835 sws_param:flags=2
[graph 0 input from stream 2:1 @ 0x55e56caeaf80] w:1280 h:720 pixfmt:yuv420p tb:1/25000 fr:25/1 sar:1/1 sws_param:flags=2
[graph_0_in_0_1 @ 0x55e56caebf40] tb:1/44100 samplefmt:fltp samplerate:44100 chlayout:0x3
[graph_0_in_2_0 @ 0x55e56caed080] tb:1/44100 samplefmt:fltp samplerate:44100 chlayout:0x3
[Parsed_scale_0 @ 0x55e56cadad40] w:848 h:480 fmt:yuv420p sar:0/1 -> w:1280 h:720 fmt:yuv420p sar:0/1 flags:0x2
[Parsed_setsar_1 @ 0x55e56bc32380] w:1280 h:720 sar:0/1 dar:16/9 -> sar:1/1 dar:16/9
[Parsed_scale_2 @ 0x55e56cae3640] w:1920 h:1080 fmt:rgba sar:2835/2835 -> w:1280 h:720 fmt:yuva420p sar:1/1 flags:0x2
[Parsed_setsar_3 @ 0x55e56cae3b40] w:1280 h:720 sar:1/1 dar:16/9 -> sar:1/1 dar:16/9
[Parsed_overlay_6 @ 0x55e56cae5d80] main w:1280 h:720 fmt:yuv420p overlay w:1280 h:720 fmt:yuva420p
[Parsed_overlay_6 @ 0x55e56cae5d80] [framesync @ 0x55e56cae5ea8] Selected 1/600 time base
[Parsed_overlay_6 @ 0x55e56cae5d80] [framesync @ 0x55e56cae5ea8] Sync level 2
[Parsed_scale_4 @ 0x55e56cae4700] w:1280 h:720 fmt:yuv420p sar:1/1 -> w:1280 h:720 fmt:yuv420p sar:1/1 flags:0x2
[Parsed_setsar_5 @ 0x55e56cae51c0] w:1280 h:720 sar:1/1 dar:16/9 -> sar:1/1 dar:16/9
[libx264 @ 0x55e56bc21bc0] using SAR=1/1
[libx264 @ 0x55e56bc21bc0] using cpu capabilities: MMX2 SSE2Fast SSSE3 SSE4.2 AVX FMA3 BMI2 AVX2
[libx264 @ 0x55e56bc21bc0] profile High, level 3.1
[libx264 @ 0x55e56bc21bc0] 264 - core 155 r2917 0a84d98 - H.264/MPEG-4 AVC codec - Copyleft 2003-2018 - http://www.videolan.org/x264.html - options: cabac=1 ref=1 deblock=1:0:0 analyse=0x3:0x113 me=hex subme=2 psy=1 psy_rd=1.00:0.00 mixed_ref=0 me_range=16 chroma_me=1 trellis=0 8x8dct=1 cqm=0 deadzone=21,11 fast_pskip=1 chroma_qp_offset=0 threads=22 lookahead_threads=5 sliced_threads=0 nr=0 decimate=1 interlaced=0 bluray_compat=0 constrained_intra=0 bframes=3 b_pyramid=2 b_adapt=1 b_bias=0 direct=1 weightb=1 open_gop=0 weightp=1 keyint=250 keyint_min=25 scenecut=40 intra_refresh=0 rc_lookahead=10 rc=crf mbtree=1 crf=18.0 qcomp=0.60 qpmin=0 qpmax=69 qpstep=4 ip_ratio=1.40 aq=1:1.00
Output #0, mp4, to '/var/www/html/project/media/video/watermarks/WhatsApp_Video_2022-07-07_at_20.57.56.mp4':
  Metadata:
    major_brand     : mp42
    minor_version   : 0
    compatible_brands: mp42isom
    encoder         : Lavf58.29.100
    Stream #0:0: Video: h264 (libx264), 1 reference frame (avc1 / 0x31637661), yuv420p(progressive), 1280x720 [SAR 1:1 DAR 16:9], q=-1--1, 29.97 fps, 30k tbn, 29.97 tbc (default)
    Metadata:
      encoder         : Lavc58.54.100 libx264
    Side data:
      cpb: bitrate max/min/avg: 0/0/0 buffer size: 0 vbv_delay: -1
    Stream #0:1: Audio: aac (LC) (mp4a / 0x6134706D), 44100 Hz, stereo, fltp, delay 1024, 128 kb/s (default)
    Metadata:
      encoder         : Lavc58.54.100 aac
[Parsed_overlay_6 @ 0x55e56cae5d80] [framesync @ 0x55e56cae5ea8] Sync level 0
[Parsed_concat_7 @ 0x55e56cae6ec0] EOF on in0:v0, 1 streams left in segment.
[Parsed_concat_7 @ 0x55e56cae6ec0] EOF on in0:a0, 0 streams left in segment.
[Parsed_concat_7 @ 0x55e56cae6ec0] Segment finished at pts=10031020
[Parsed_concat_7 @ 0x55e56cae6ec0] EOF on in1:a0, 1 streams left in segment.
[Parsed_concat_7 @ 0x55e56cae6ec0] EOF on in1:v0, 0 streams left in segment.
[Parsed_concat_7 @ 0x55e56cae6ec0] Segment finished at pts=12049705
No more output streams to write to, finishing.
frame=  349 fps=202 q=-1.0 Lsize=    5753kB time=00:00:12.05 bitrate=3910.8kbits/s speed=6.97x    
[AVIOContext @ 0x55e56bb00440] Statistics: 0 seeks, 4 writeouts
video:5553kB audio:187kB subtitle:0kB other streams:0kB global headers:0kB muxing overhead: 0.242219%
Input file #0 (/var/www/html/project/media/video/original/WhatsApp_Video_2022-07-07_at_20.57.56.mp4):
  Input stream #0:0 (video): 299 packets read (2064880 bytes); 299 frames decoded; 
  Input stream #0:1 (audio): 432 packets read (81394 bytes); 432 frames decoded (442368 samples); 
  Total: 731 packets (2146274 bytes) demuxed
Input file #1 (/var/www/html/project/static/images/templates/logo.png):
  Input stream #1:0 (video): 1 packets read (111578 bytes); 1 frames decoded; 
  Total: 1 packets (111578 bytes) demuxed
Input file #2 (/var/www/html/project/static/images/templates/Codino.mp4):
  Input stream #2:0 (audio): 89 packets read (26579 bytes); 87 frames decoded (89024 samples); 
  Input stream #2:1 (video): 50 packets read (203365 bytes); 50 frames decoded; 
  Total: 139 packets (229944 bytes) demuxed
Output file #0 (/var/www/html/project/media/video/watermarks/WhatsApp_Video_2022-07-07_at_20.57.56.mp4):
  Output stream #0:0 (video): 349 frames encoded; 349 packets muxed (5685847 bytes); 
  Output stream #0:1 (audio): 519 frames encoded (531392 samples); 520 packets muxed (191073 bytes); 
  Total: 869 packets (5876920 bytes) muxed
[AVIOContext @ 0x55e56bc71940] Statistics: 2 seeks, 26 writeouts
[libx264 @ 0x55e56bc21bc0] frame I:3     Avg QP:12.73  size: 89810
[libx264 @ 0x55e56bc21bc0] frame P:102   Avg QP:17.22  size: 34528
[libx264 @ 0x55e56bc21bc0] frame B:244   Avg QP:21.96  size:  7762
[libx264 @ 0x55e56bc21bc0] consecutive B-frames:  4.9%  5.2%  1.7% 88.3%
[libx264 @ 0x55e56bc21bc0] mb I  I16..4: 34.1%  6.8% 59.1%
[libx264 @ 0x55e56bc21bc0] mb P  I16..4:  2.1%  5.4%  3.9%  P16..4: 21.8% 22.8% 17.9%  0.0%  0.0%    skip:26.2%
[libx264 @ 0x55e56bc21bc0] mb B  I16..4:  0.6%  0.7%  0.2%  B16..8: 26.5% 11.6%  1.4%  direct:13.7%  skip:45.4%  L0:31.3% L1:41.1% BI:27.5%
[libx264 @ 0x55e56bc21bc0] 8x8 transform intra:40.7% inter:33.5%
[libx264 @ 0x55e56bc21bc0] coded y,uvDC,uvAC intra: 63.6% 63.4% 21.9% inter: 19.9% 16.4% 0.6%
[libx264 @ 0x55e56bc21bc0] i16 v,h,dc,p: 35% 50%  9%  7%
[libx264 @ 0x55e56bc21bc0] i8 v,h,dc,ddl,ddr,vr,hd,vl,hu: 10% 44% 14%  3%  6%  4%  9%  3%  7%
[libx264 @ 0x55e56bc21bc0] i4 v,h,dc,ddl,ddr,vr,hd,vl,hu: 14% 28% 11%  5% 10%  7% 13%  5%  8%
[libx264 @ 0x55e56bc21bc0] i8c dc,h,v,p: 49% 34% 10%  7%
[libx264 @ 0x55e56bc21bc0] Weighted P-Frames: Y:14.7% UV:2.0%
[libx264 @ 0x55e56bc21bc0] kb/s:3786.32
[aac @ 0x55e56bb30b80] Qavg: 4140.035
[AVIOContext @ 0x55e56bb093c0] Statistics: 2150735 bytes read, 0 seeks
[AVIOContext @ 0x55e56bc909c0] Statistics: 111578 bytes read, 0 seeks
[AVIOContext @ 0x55e56bb078c0] Statistics: 1530915 bytes read, 42 seeks
